G04 #@! TF.GenerationSoftware,KiCad,Pcbnew,10.0.5*
G04 #@! TF.CreationDate,2026-10-08T23:09:12-04:00*
G04 #@! TF.ProjectId,REM PI FC,52454d20-5049-4204-9643-2e6b69636164,rev?*
G04 #@! TF.SameCoordinates,Original*
G04 #@! TF.FileFunction,Legend,Top*
G04 #@! TF.FilePolarity,Positive*
%FSLAX46Y46*%
G04 Gerber Fmt 4.6, Leading zero omitted, Abs format (unit mm)*
G04 Created by KiCad (PCBNEW 10.0.5) date 2026-10-08 23:09:12*
%MOMM*%
%LPD*%
G01*
G04 APERTURE LIST*
%ADD10C,0.150000*%
%ADD11C,0.120000*%
G04 APERTURE END LIST*
D10*
X128408207Y-89149931D02*
X128074874Y-88673740D01*
X127836779Y-89149931D02*
X127836779Y-88149931D01*
X127836779Y-88149931D02*
X128217731Y-88149931D01*
X128217731Y-88149931D02*
X128312969Y-88197550D01*
X128312969Y-88197550D02*
X128360588Y-88245169D01*
X128360588Y-88245169D02*
X128408207Y-88340407D01*
X128408207Y-88340407D02*
X128408207Y-88483264D01*
X128408207Y-88483264D02*
X128360588Y-88578502D01*
X128360588Y-88578502D02*
X128312969Y-88626121D01*
X128312969Y-88626121D02*
X128217731Y-88673740D01*
X128217731Y-88673740D02*
X127836779Y-88673740D01*
X128836779Y-88626121D02*
X129170112Y-88626121D01*
X129312969Y-89149931D02*
X128836779Y-89149931D01*
X128836779Y-89149931D02*
X128836779Y-88149931D01*
X128836779Y-88149931D02*
X129312969Y-88149931D01*
X129741541Y-89149931D02*
X129741541Y-88149931D01*
X129741541Y-88149931D02*
X130074874Y-88864216D01*
X130074874Y-88864216D02*
X130408207Y-88149931D01*
X130408207Y-88149931D02*
X130408207Y-89149931D01*
X131646303Y-89149931D02*
X131646303Y-88149931D01*
X131646303Y-88149931D02*
X132027255Y-88149931D01*
X132027255Y-88149931D02*
X132122493Y-88197550D01*
X132122493Y-88197550D02*
X132170112Y-88245169D01*
X132170112Y-88245169D02*
X132217731Y-88340407D01*
X132217731Y-88340407D02*
X132217731Y-88483264D01*
X132217731Y-88483264D02*
X132170112Y-88578502D01*
X132170112Y-88578502D02*
X132122493Y-88626121D01*
X132122493Y-88626121D02*
X132027255Y-88673740D01*
X132027255Y-88673740D02*
X131646303Y-88673740D01*
X132646303Y-89149931D02*
X132646303Y-88149931D01*
X134217731Y-88626121D02*
X133884398Y-88626121D01*
X133884398Y-89149931D02*
X133884398Y-88149931D01*
X133884398Y-88149931D02*
X134360588Y-88149931D01*
X134741541Y-89149931D02*
X134741541Y-88483264D01*
X134741541Y-88149931D02*
X134693922Y-88197550D01*
X134693922Y-88197550D02*
X134741541Y-88245169D01*
X134741541Y-88245169D02*
X134789160Y-88197550D01*
X134789160Y-88197550D02*
X134741541Y-88149931D01*
X134741541Y-88149931D02*
X134741541Y-88245169D01*
X135598683Y-89102312D02*
X135503445Y-89149931D01*
X135503445Y-89149931D02*
X135312969Y-89149931D01*
X135312969Y-89149931D02*
X135217731Y-89102312D01*
X135217731Y-89102312D02*
X135170112Y-89007073D01*
X135170112Y-89007073D02*
X135170112Y-88626121D01*
X135170112Y-88626121D02*
X135217731Y-88530883D01*
X135217731Y-88530883D02*
X135312969Y-88483264D01*
X135312969Y-88483264D02*
X135503445Y-88483264D01*
X135503445Y-88483264D02*
X135598683Y-88530883D01*
X135598683Y-88530883D02*
X135646302Y-88626121D01*
X135646302Y-88626121D02*
X135646302Y-88721359D01*
X135646302Y-88721359D02*
X135170112Y-88816597D01*
X136217731Y-89149931D02*
X136122493Y-89102312D01*
X136122493Y-89102312D02*
X136074874Y-89007073D01*
X136074874Y-89007073D02*
X136074874Y-88149931D01*
X137027255Y-89149931D02*
X137027255Y-88149931D01*
X137027255Y-89102312D02*
X136932017Y-89149931D01*
X136932017Y-89149931D02*
X136741541Y-89149931D01*
X136741541Y-89149931D02*
X136646303Y-89102312D01*
X136646303Y-89102312D02*
X136598684Y-89054692D01*
X136598684Y-89054692D02*
X136551065Y-88959454D01*
X136551065Y-88959454D02*
X136551065Y-88673740D01*
X136551065Y-88673740D02*
X136598684Y-88578502D01*
X136598684Y-88578502D02*
X136646303Y-88530883D01*
X136646303Y-88530883D02*
X136741541Y-88483264D01*
X136741541Y-88483264D02*
X136932017Y-88483264D01*
X136932017Y-88483264D02*
X137027255Y-88530883D01*
X138836779Y-89054692D02*
X138789160Y-89102312D01*
X138789160Y-89102312D02*
X138646303Y-89149931D01*
X138646303Y-89149931D02*
X138551065Y-89149931D01*
X138551065Y-89149931D02*
X138408208Y-89102312D01*
X138408208Y-89102312D02*
X138312970Y-89007073D01*
X138312970Y-89007073D02*
X138265351Y-88911835D01*
X138265351Y-88911835D02*
X138217732Y-88721359D01*
X138217732Y-88721359D02*
X138217732Y-88578502D01*
X138217732Y-88578502D02*
X138265351Y-88388026D01*
X138265351Y-88388026D02*
X138312970Y-88292788D01*
X138312970Y-88292788D02*
X138408208Y-88197550D01*
X138408208Y-88197550D02*
X138551065Y-88149931D01*
X138551065Y-88149931D02*
X138646303Y-88149931D01*
X138646303Y-88149931D02*
X138789160Y-88197550D01*
X138789160Y-88197550D02*
X138836779Y-88245169D01*
X139408208Y-89149931D02*
X139312970Y-89102312D01*
X139312970Y-89102312D02*
X139265351Y-89054692D01*
X139265351Y-89054692D02*
X139217732Y-88959454D01*
X139217732Y-88959454D02*
X139217732Y-88673740D01*
X139217732Y-88673740D02*
X139265351Y-88578502D01*
X139265351Y-88578502D02*
X139312970Y-88530883D01*
X139312970Y-88530883D02*
X139408208Y-88483264D01*
X139408208Y-88483264D02*
X139551065Y-88483264D01*
X139551065Y-88483264D02*
X139646303Y-88530883D01*
X139646303Y-88530883D02*
X139693922Y-88578502D01*
X139693922Y-88578502D02*
X139741541Y-88673740D01*
X139741541Y-88673740D02*
X139741541Y-88959454D01*
X139741541Y-88959454D02*
X139693922Y-89054692D01*
X139693922Y-89054692D02*
X139646303Y-89102312D01*
X139646303Y-89102312D02*
X139551065Y-89149931D01*
X139551065Y-89149931D02*
X139408208Y-89149931D01*
X140170113Y-88483264D02*
X140170113Y-89149931D01*
X140170113Y-88578502D02*
X140217732Y-88530883D01*
X140217732Y-88530883D02*
X140312970Y-88483264D01*
X140312970Y-88483264D02*
X140455827Y-88483264D01*
X140455827Y-88483264D02*
X140551065Y-88530883D01*
X140551065Y-88530883D02*
X140598684Y-88626121D01*
X140598684Y-88626121D02*
X140598684Y-89149931D01*
X140932018Y-88483264D02*
X141312970Y-88483264D01*
X141074875Y-88149931D02*
X141074875Y-89007073D01*
X141074875Y-89007073D02*
X141122494Y-89102312D01*
X141122494Y-89102312D02*
X141217732Y-89149931D01*
X141217732Y-89149931D02*
X141312970Y-89149931D01*
X141646304Y-89149931D02*
X141646304Y-88483264D01*
X141646304Y-88673740D02*
X141693923Y-88578502D01*
X141693923Y-88578502D02*
X141741542Y-88530883D01*
X141741542Y-88530883D02*
X141836780Y-88483264D01*
X141836780Y-88483264D02*
X141932018Y-88483264D01*
X142408209Y-89149931D02*
X142312971Y-89102312D01*
X142312971Y-89102312D02*
X142265352Y-89054692D01*
X142265352Y-89054692D02*
X142217733Y-88959454D01*
X142217733Y-88959454D02*
X142217733Y-88673740D01*
X142217733Y-88673740D02*
X142265352Y-88578502D01*
X142265352Y-88578502D02*
X142312971Y-88530883D01*
X142312971Y-88530883D02*
X142408209Y-88483264D01*
X142408209Y-88483264D02*
X142551066Y-88483264D01*
X142551066Y-88483264D02*
X142646304Y-88530883D01*
X142646304Y-88530883D02*
X142693923Y-88578502D01*
X142693923Y-88578502D02*
X142741542Y-88673740D01*
X142741542Y-88673740D02*
X142741542Y-88959454D01*
X142741542Y-88959454D02*
X142693923Y-89054692D01*
X142693923Y-89054692D02*
X142646304Y-89102312D01*
X142646304Y-89102312D02*
X142551066Y-89149931D01*
X142551066Y-89149931D02*
X142408209Y-89149931D01*
X143312971Y-89149931D02*
X143217733Y-89102312D01*
X143217733Y-89102312D02*
X143170114Y-89007073D01*
X143170114Y-89007073D02*
X143170114Y-88149931D01*
X144455829Y-89149931D02*
X144455829Y-88149931D01*
X144455829Y-88626121D02*
X145027257Y-88626121D01*
X145027257Y-89149931D02*
X145027257Y-88149931D01*
X145932019Y-89149931D02*
X145932019Y-88626121D01*
X145932019Y-88626121D02*
X145884400Y-88530883D01*
X145884400Y-88530883D02*
X145789162Y-88483264D01*
X145789162Y-88483264D02*
X145598686Y-88483264D01*
X145598686Y-88483264D02*
X145503448Y-88530883D01*
X145932019Y-89102312D02*
X145836781Y-89149931D01*
X145836781Y-89149931D02*
X145598686Y-89149931D01*
X145598686Y-89149931D02*
X145503448Y-89102312D01*
X145503448Y-89102312D02*
X145455829Y-89007073D01*
X145455829Y-89007073D02*
X145455829Y-88911835D01*
X145455829Y-88911835D02*
X145503448Y-88816597D01*
X145503448Y-88816597D02*
X145598686Y-88768978D01*
X145598686Y-88768978D02*
X145836781Y-88768978D01*
X145836781Y-88768978D02*
X145932019Y-88721359D01*
X146265353Y-88483264D02*
X146646305Y-88483264D01*
X146408210Y-88149931D02*
X146408210Y-89007073D01*
X146408210Y-89007073D02*
X146455829Y-89102312D01*
X146455829Y-89102312D02*
X146551067Y-89149931D01*
X146551067Y-89149931D02*
X146646305Y-89149931D01*
X147598687Y-88149931D02*
X147932020Y-89149931D01*
X147932020Y-89149931D02*
X148265353Y-88149931D01*
X149122496Y-89149931D02*
X148551068Y-89149931D01*
X148836782Y-89149931D02*
X148836782Y-88149931D01*
X148836782Y-88149931D02*
X148741544Y-88292788D01*
X148741544Y-88292788D02*
X148646306Y-88388026D01*
X148646306Y-88388026D02*
X148551068Y-88435645D01*
X149551068Y-89054692D02*
X149598687Y-89102312D01*
X149598687Y-89102312D02*
X149551068Y-89149931D01*
X149551068Y-89149931D02*
X149503449Y-89102312D01*
X149503449Y-89102312D02*
X149551068Y-89054692D01*
X149551068Y-89054692D02*
X149551068Y-89149931D01*
X149979639Y-88245169D02*
X150027258Y-88197550D01*
X150027258Y-88197550D02*
X150122496Y-88149931D01*
X150122496Y-88149931D02*
X150360591Y-88149931D01*
X150360591Y-88149931D02*
X150455829Y-88197550D01*
X150455829Y-88197550D02*
X150503448Y-88245169D01*
X150503448Y-88245169D02*
X150551067Y-88340407D01*
X150551067Y-88340407D02*
X150551067Y-88435645D01*
X150551067Y-88435645D02*
X150503448Y-88578502D01*
X150503448Y-88578502D02*
X149932020Y-89149931D01*
X149932020Y-89149931D02*
X150551067Y-89149931D01*
X128312969Y-90759875D02*
X127836779Y-90759875D01*
X127836779Y-90759875D02*
X127836779Y-89759875D01*
X128646303Y-90759875D02*
X128646303Y-90093208D01*
X128646303Y-89759875D02*
X128598684Y-89807494D01*
X128598684Y-89807494D02*
X128646303Y-89855113D01*
X128646303Y-89855113D02*
X128693922Y-89807494D01*
X128693922Y-89807494D02*
X128646303Y-89759875D01*
X128646303Y-89759875D02*
X128646303Y-89855113D01*
X129551064Y-90712256D02*
X129455826Y-90759875D01*
X129455826Y-90759875D02*
X129265350Y-90759875D01*
X129265350Y-90759875D02*
X129170112Y-90712256D01*
X129170112Y-90712256D02*
X129122493Y-90664636D01*
X129122493Y-90664636D02*
X129074874Y-90569398D01*
X129074874Y-90569398D02*
X129074874Y-90283684D01*
X129074874Y-90283684D02*
X129122493Y-90188446D01*
X129122493Y-90188446D02*
X129170112Y-90140827D01*
X129170112Y-90140827D02*
X129265350Y-90093208D01*
X129265350Y-90093208D02*
X129455826Y-90093208D01*
X129455826Y-90093208D02*
X129551064Y-90140827D01*
X130360588Y-90712256D02*
X130265350Y-90759875D01*
X130265350Y-90759875D02*
X130074874Y-90759875D01*
X130074874Y-90759875D02*
X129979636Y-90712256D01*
X129979636Y-90712256D02*
X129932017Y-90617017D01*
X129932017Y-90617017D02*
X129932017Y-90236065D01*
X129932017Y-90236065D02*
X129979636Y-90140827D01*
X129979636Y-90140827D02*
X130074874Y-90093208D01*
X130074874Y-90093208D02*
X130265350Y-90093208D01*
X130265350Y-90093208D02*
X130360588Y-90140827D01*
X130360588Y-90140827D02*
X130408207Y-90236065D01*
X130408207Y-90236065D02*
X130408207Y-90331303D01*
X130408207Y-90331303D02*
X129932017Y-90426541D01*
X130836779Y-90093208D02*
X130836779Y-90759875D01*
X130836779Y-90188446D02*
X130884398Y-90140827D01*
X130884398Y-90140827D02*
X130979636Y-90093208D01*
X130979636Y-90093208D02*
X131122493Y-90093208D01*
X131122493Y-90093208D02*
X131217731Y-90140827D01*
X131217731Y-90140827D02*
X131265350Y-90236065D01*
X131265350Y-90236065D02*
X131265350Y-90759875D01*
X131693922Y-90712256D02*
X131789160Y-90759875D01*
X131789160Y-90759875D02*
X131979636Y-90759875D01*
X131979636Y-90759875D02*
X132074874Y-90712256D01*
X132074874Y-90712256D02*
X132122493Y-90617017D01*
X132122493Y-90617017D02*
X132122493Y-90569398D01*
X132122493Y-90569398D02*
X132074874Y-90474160D01*
X132074874Y-90474160D02*
X131979636Y-90426541D01*
X131979636Y-90426541D02*
X131836779Y-90426541D01*
X131836779Y-90426541D02*
X131741541Y-90378922D01*
X131741541Y-90378922D02*
X131693922Y-90283684D01*
X131693922Y-90283684D02*
X131693922Y-90236065D01*
X131693922Y-90236065D02*
X131741541Y-90140827D01*
X131741541Y-90140827D02*
X131836779Y-90093208D01*
X131836779Y-90093208D02*
X131979636Y-90093208D01*
X131979636Y-90093208D02*
X132074874Y-90140827D01*
X132932017Y-90712256D02*
X132836779Y-90759875D01*
X132836779Y-90759875D02*
X132646303Y-90759875D01*
X132646303Y-90759875D02*
X132551065Y-90712256D01*
X132551065Y-90712256D02*
X132503446Y-90617017D01*
X132503446Y-90617017D02*
X132503446Y-90236065D01*
X132503446Y-90236065D02*
X132551065Y-90140827D01*
X132551065Y-90140827D02*
X132646303Y-90093208D01*
X132646303Y-90093208D02*
X132836779Y-90093208D01*
X132836779Y-90093208D02*
X132932017Y-90140827D01*
X132932017Y-90140827D02*
X132979636Y-90236065D01*
X132979636Y-90236065D02*
X132979636Y-90331303D01*
X132979636Y-90331303D02*
X132503446Y-90426541D01*
X133836779Y-90759875D02*
X133836779Y-89759875D01*
X133836779Y-90712256D02*
X133741541Y-90759875D01*
X133741541Y-90759875D02*
X133551065Y-90759875D01*
X133551065Y-90759875D02*
X133455827Y-90712256D01*
X133455827Y-90712256D02*
X133408208Y-90664636D01*
X133408208Y-90664636D02*
X133360589Y-90569398D01*
X133360589Y-90569398D02*
X133360589Y-90283684D01*
X133360589Y-90283684D02*
X133408208Y-90188446D01*
X133408208Y-90188446D02*
X133455827Y-90140827D01*
X133455827Y-90140827D02*
X133551065Y-90093208D01*
X133551065Y-90093208D02*
X133741541Y-90093208D01*
X133741541Y-90093208D02*
X133836779Y-90140827D01*
X135503446Y-90093208D02*
X135503446Y-90759875D01*
X135074875Y-90093208D02*
X135074875Y-90617017D01*
X135074875Y-90617017D02*
X135122494Y-90712256D01*
X135122494Y-90712256D02*
X135217732Y-90759875D01*
X135217732Y-90759875D02*
X135360589Y-90759875D01*
X135360589Y-90759875D02*
X135455827Y-90712256D01*
X135455827Y-90712256D02*
X135503446Y-90664636D01*
X135979637Y-90093208D02*
X135979637Y-90759875D01*
X135979637Y-90188446D02*
X136027256Y-90140827D01*
X136027256Y-90140827D02*
X136122494Y-90093208D01*
X136122494Y-90093208D02*
X136265351Y-90093208D01*
X136265351Y-90093208D02*
X136360589Y-90140827D01*
X136360589Y-90140827D02*
X136408208Y-90236065D01*
X136408208Y-90236065D02*
X136408208Y-90759875D01*
X137312970Y-90759875D02*
X137312970Y-89759875D01*
X137312970Y-90712256D02*
X137217732Y-90759875D01*
X137217732Y-90759875D02*
X137027256Y-90759875D01*
X137027256Y-90759875D02*
X136932018Y-90712256D01*
X136932018Y-90712256D02*
X136884399Y-90664636D01*
X136884399Y-90664636D02*
X136836780Y-90569398D01*
X136836780Y-90569398D02*
X136836780Y-90283684D01*
X136836780Y-90283684D02*
X136884399Y-90188446D01*
X136884399Y-90188446D02*
X136932018Y-90140827D01*
X136932018Y-90140827D02*
X137027256Y-90093208D01*
X137027256Y-90093208D02*
X137217732Y-90093208D01*
X137217732Y-90093208D02*
X137312970Y-90140827D01*
X138170113Y-90712256D02*
X138074875Y-90759875D01*
X138074875Y-90759875D02*
X137884399Y-90759875D01*
X137884399Y-90759875D02*
X137789161Y-90712256D01*
X137789161Y-90712256D02*
X137741542Y-90617017D01*
X137741542Y-90617017D02*
X137741542Y-90236065D01*
X137741542Y-90236065D02*
X137789161Y-90140827D01*
X137789161Y-90140827D02*
X137884399Y-90093208D01*
X137884399Y-90093208D02*
X138074875Y-90093208D01*
X138074875Y-90093208D02*
X138170113Y-90140827D01*
X138170113Y-90140827D02*
X138217732Y-90236065D01*
X138217732Y-90236065D02*
X138217732Y-90331303D01*
X138217732Y-90331303D02*
X137741542Y-90426541D01*
X138646304Y-90759875D02*
X138646304Y-90093208D01*
X138646304Y-90283684D02*
X138693923Y-90188446D01*
X138693923Y-90188446D02*
X138741542Y-90140827D01*
X138741542Y-90140827D02*
X138836780Y-90093208D01*
X138836780Y-90093208D02*
X138932018Y-90093208D01*
X140598685Y-90664636D02*
X140551066Y-90712256D01*
X140551066Y-90712256D02*
X140408209Y-90759875D01*
X140408209Y-90759875D02*
X140312971Y-90759875D01*
X140312971Y-90759875D02*
X140170114Y-90712256D01*
X140170114Y-90712256D02*
X140074876Y-90617017D01*
X140074876Y-90617017D02*
X140027257Y-90521779D01*
X140027257Y-90521779D02*
X139979638Y-90331303D01*
X139979638Y-90331303D02*
X139979638Y-90188446D01*
X139979638Y-90188446D02*
X140027257Y-89997970D01*
X140027257Y-89997970D02*
X140074876Y-89902732D01*
X140074876Y-89902732D02*
X140170114Y-89807494D01*
X140170114Y-89807494D02*
X140312971Y-89759875D01*
X140312971Y-89759875D02*
X140408209Y-89759875D01*
X140408209Y-89759875D02*
X140551066Y-89807494D01*
X140551066Y-89807494D02*
X140598685Y-89855113D01*
X141027257Y-90236065D02*
X141360590Y-90236065D01*
X141503447Y-90759875D02*
X141027257Y-90759875D01*
X141027257Y-90759875D02*
X141027257Y-89759875D01*
X141027257Y-89759875D02*
X141503447Y-89759875D01*
X142503447Y-90759875D02*
X142170114Y-90283684D01*
X141932019Y-90759875D02*
X141932019Y-89759875D01*
X141932019Y-89759875D02*
X142312971Y-89759875D01*
X142312971Y-89759875D02*
X142408209Y-89807494D01*
X142408209Y-89807494D02*
X142455828Y-89855113D01*
X142455828Y-89855113D02*
X142503447Y-89950351D01*
X142503447Y-89950351D02*
X142503447Y-90093208D01*
X142503447Y-90093208D02*
X142455828Y-90188446D01*
X142455828Y-90188446D02*
X142408209Y-90236065D01*
X142408209Y-90236065D02*
X142312971Y-90283684D01*
X142312971Y-90283684D02*
X141932019Y-90283684D01*
X142932019Y-90759875D02*
X142932019Y-89759875D01*
X142932019Y-89759875D02*
X143503447Y-90759875D01*
X143503447Y-90759875D02*
X143503447Y-89759875D01*
X143979638Y-90378922D02*
X144741543Y-90378922D01*
X145408209Y-89759875D02*
X145598685Y-89759875D01*
X145598685Y-89759875D02*
X145693923Y-89807494D01*
X145693923Y-89807494D02*
X145789161Y-89902732D01*
X145789161Y-89902732D02*
X145836780Y-90093208D01*
X145836780Y-90093208D02*
X145836780Y-90426541D01*
X145836780Y-90426541D02*
X145789161Y-90617017D01*
X145789161Y-90617017D02*
X145693923Y-90712256D01*
X145693923Y-90712256D02*
X145598685Y-90759875D01*
X145598685Y-90759875D02*
X145408209Y-90759875D01*
X145408209Y-90759875D02*
X145312971Y-90712256D01*
X145312971Y-90712256D02*
X145217733Y-90617017D01*
X145217733Y-90617017D02*
X145170114Y-90426541D01*
X145170114Y-90426541D02*
X145170114Y-90093208D01*
X145170114Y-90093208D02*
X145217733Y-89902732D01*
X145217733Y-89902732D02*
X145312971Y-89807494D01*
X145312971Y-89807494D02*
X145408209Y-89759875D01*
X146265352Y-90759875D02*
X146265352Y-89759875D01*
X146265352Y-90236065D02*
X146836780Y-90236065D01*
X146836780Y-90759875D02*
X146836780Y-89759875D01*
X147789161Y-90759875D02*
X147312971Y-90759875D01*
X147312971Y-90759875D02*
X147312971Y-89759875D01*
X148122495Y-90378922D02*
X148884400Y-90378922D01*
X149360590Y-90759875D02*
X149360590Y-89759875D01*
X149360590Y-89759875D02*
X149741542Y-89759875D01*
X149741542Y-89759875D02*
X149836780Y-89807494D01*
X149836780Y-89807494D02*
X149884399Y-89855113D01*
X149884399Y-89855113D02*
X149932018Y-89950351D01*
X149932018Y-89950351D02*
X149932018Y-90093208D01*
X149932018Y-90093208D02*
X149884399Y-90188446D01*
X149884399Y-90188446D02*
X149836780Y-90236065D01*
X149836780Y-90236065D02*
X149741542Y-90283684D01*
X149741542Y-90283684D02*
X149360590Y-90283684D01*
X150360590Y-90378922D02*
X151122495Y-90378922D01*
X151551066Y-89855113D02*
X151598685Y-89807494D01*
X151598685Y-89807494D02*
X151693923Y-89759875D01*
X151693923Y-89759875D02*
X151932018Y-89759875D01*
X151932018Y-89759875D02*
X152027256Y-89807494D01*
X152027256Y-89807494D02*
X152074875Y-89855113D01*
X152074875Y-89855113D02*
X152122494Y-89950351D01*
X152122494Y-89950351D02*
X152122494Y-90045589D01*
X152122494Y-90045589D02*
X152074875Y-90188446D01*
X152074875Y-90188446D02*
X151503447Y-90759875D01*
X151503447Y-90759875D02*
X152122494Y-90759875D01*
X152551066Y-90664636D02*
X152598685Y-90712256D01*
X152598685Y-90712256D02*
X152551066Y-90759875D01*
X152551066Y-90759875D02*
X152503447Y-90712256D01*
X152503447Y-90712256D02*
X152551066Y-90664636D01*
X152551066Y-90664636D02*
X152551066Y-90759875D01*
X153217732Y-89759875D02*
X153312970Y-89759875D01*
X153312970Y-89759875D02*
X153408208Y-89807494D01*
X153408208Y-89807494D02*
X153455827Y-89855113D01*
X153455827Y-89855113D02*
X153503446Y-89950351D01*
X153503446Y-89950351D02*
X153551065Y-90140827D01*
X153551065Y-90140827D02*
X153551065Y-90378922D01*
X153551065Y-90378922D02*
X153503446Y-90569398D01*
X153503446Y-90569398D02*
X153455827Y-90664636D01*
X153455827Y-90664636D02*
X153408208Y-90712256D01*
X153408208Y-90712256D02*
X153312970Y-90759875D01*
X153312970Y-90759875D02*
X153217732Y-90759875D01*
X153217732Y-90759875D02*
X153122494Y-90712256D01*
X153122494Y-90712256D02*
X153074875Y-90664636D01*
X153074875Y-90664636D02*
X153027256Y-90569398D01*
X153027256Y-90569398D02*
X152979637Y-90378922D01*
X152979637Y-90378922D02*
X152979637Y-90140827D01*
X152979637Y-90140827D02*
X153027256Y-89950351D01*
X153027256Y-89950351D02*
X153074875Y-89855113D01*
X153074875Y-89855113D02*
X153122494Y-89807494D01*
X153122494Y-89807494D02*
X153217732Y-89759875D01*
X153979637Y-90664636D02*
X154027256Y-90712256D01*
X154027256Y-90712256D02*
X153979637Y-90759875D01*
X153979637Y-90759875D02*
X153932018Y-90712256D01*
X153932018Y-90712256D02*
X153979637Y-90664636D01*
X153979637Y-90664636D02*
X153979637Y-90759875D01*
X153979637Y-90140827D02*
X154027256Y-90188446D01*
X154027256Y-90188446D02*
X153979637Y-90236065D01*
X153979637Y-90236065D02*
X153932018Y-90188446D01*
X153932018Y-90188446D02*
X153979637Y-90140827D01*
X153979637Y-90140827D02*
X153979637Y-90236065D01*
X127836779Y-92369819D02*
X127836779Y-91369819D01*
X128265350Y-92369819D02*
X128265350Y-91846009D01*
X128265350Y-91846009D02*
X128217731Y-91750771D01*
X128217731Y-91750771D02*
X128122493Y-91703152D01*
X128122493Y-91703152D02*
X127979636Y-91703152D01*
X127979636Y-91703152D02*
X127884398Y-91750771D01*
X127884398Y-91750771D02*
X127836779Y-91798390D01*
X128598684Y-91703152D02*
X128979636Y-91703152D01*
X128741541Y-91369819D02*
X128741541Y-92226961D01*
X128741541Y-92226961D02*
X128789160Y-92322200D01*
X128789160Y-92322200D02*
X128884398Y-92369819D01*
X128884398Y-92369819D02*
X128979636Y-92369819D01*
X129170113Y-91703152D02*
X129551065Y-91703152D01*
X129312970Y-91369819D02*
X129312970Y-92226961D01*
X129312970Y-92226961D02*
X129360589Y-92322200D01*
X129360589Y-92322200D02*
X129455827Y-92369819D01*
X129455827Y-92369819D02*
X129551065Y-92369819D01*
X129884399Y-91703152D02*
X129884399Y-92703152D01*
X129884399Y-91750771D02*
X129979637Y-91703152D01*
X129979637Y-91703152D02*
X130170113Y-91703152D01*
X130170113Y-91703152D02*
X130265351Y-91750771D01*
X130265351Y-91750771D02*
X130312970Y-91798390D01*
X130312970Y-91798390D02*
X130360589Y-91893628D01*
X130360589Y-91893628D02*
X130360589Y-92179342D01*
X130360589Y-92179342D02*
X130312970Y-92274580D01*
X130312970Y-92274580D02*
X130265351Y-92322200D01*
X130265351Y-92322200D02*
X130170113Y-92369819D01*
X130170113Y-92369819D02*
X129979637Y-92369819D01*
X129979637Y-92369819D02*
X129884399Y-92322200D01*
X130741542Y-92322200D02*
X130836780Y-92369819D01*
X130836780Y-92369819D02*
X131027256Y-92369819D01*
X131027256Y-92369819D02*
X131122494Y-92322200D01*
X131122494Y-92322200D02*
X131170113Y-92226961D01*
X131170113Y-92226961D02*
X131170113Y-92179342D01*
X131170113Y-92179342D02*
X131122494Y-92084104D01*
X131122494Y-92084104D02*
X131027256Y-92036485D01*
X131027256Y-92036485D02*
X130884399Y-92036485D01*
X130884399Y-92036485D02*
X130789161Y-91988866D01*
X130789161Y-91988866D02*
X130741542Y-91893628D01*
X130741542Y-91893628D02*
X130741542Y-91846009D01*
X130741542Y-91846009D02*
X130789161Y-91750771D01*
X130789161Y-91750771D02*
X130884399Y-91703152D01*
X130884399Y-91703152D02*
X131027256Y-91703152D01*
X131027256Y-91703152D02*
X131122494Y-91750771D01*
X131598685Y-92274580D02*
X131646304Y-92322200D01*
X131646304Y-92322200D02*
X131598685Y-92369819D01*
X131598685Y-92369819D02*
X131551066Y-92322200D01*
X131551066Y-92322200D02*
X131598685Y-92274580D01*
X131598685Y-92274580D02*
X131598685Y-92369819D01*
X131598685Y-91750771D02*
X131646304Y-91798390D01*
X131646304Y-91798390D02*
X131598685Y-91846009D01*
X131598685Y-91846009D02*
X131551066Y-91798390D01*
X131551066Y-91798390D02*
X131598685Y-91750771D01*
X131598685Y-91750771D02*
X131598685Y-91846009D01*
X132789160Y-91322200D02*
X131932018Y-92607914D01*
X133836779Y-91322200D02*
X132979637Y-92607914D01*
X134122494Y-92322200D02*
X134217732Y-92369819D01*
X134217732Y-92369819D02*
X134408208Y-92369819D01*
X134408208Y-92369819D02*
X134503446Y-92322200D01*
X134503446Y-92322200D02*
X134551065Y-92226961D01*
X134551065Y-92226961D02*
X134551065Y-92179342D01*
X134551065Y-92179342D02*
X134503446Y-92084104D01*
X134503446Y-92084104D02*
X134408208Y-92036485D01*
X134408208Y-92036485D02*
X134265351Y-92036485D01*
X134265351Y-92036485D02*
X134170113Y-91988866D01*
X134170113Y-91988866D02*
X134122494Y-91893628D01*
X134122494Y-91893628D02*
X134122494Y-91846009D01*
X134122494Y-91846009D02*
X134170113Y-91750771D01*
X134170113Y-91750771D02*
X134265351Y-91703152D01*
X134265351Y-91703152D02*
X134408208Y-91703152D01*
X134408208Y-91703152D02*
X134503446Y-91750771D01*
X134979637Y-91703152D02*
X134979637Y-92703152D01*
X134979637Y-91750771D02*
X135074875Y-91703152D01*
X135074875Y-91703152D02*
X135265351Y-91703152D01*
X135265351Y-91703152D02*
X135360589Y-91750771D01*
X135360589Y-91750771D02*
X135408208Y-91798390D01*
X135408208Y-91798390D02*
X135455827Y-91893628D01*
X135455827Y-91893628D02*
X135455827Y-92179342D01*
X135455827Y-92179342D02*
X135408208Y-92274580D01*
X135408208Y-92274580D02*
X135360589Y-92322200D01*
X135360589Y-92322200D02*
X135265351Y-92369819D01*
X135265351Y-92369819D02*
X135074875Y-92369819D01*
X135074875Y-92369819D02*
X134979637Y-92322200D01*
X136312970Y-92369819D02*
X136312970Y-91369819D01*
X136312970Y-92322200D02*
X136217732Y-92369819D01*
X136217732Y-92369819D02*
X136027256Y-92369819D01*
X136027256Y-92369819D02*
X135932018Y-92322200D01*
X135932018Y-92322200D02*
X135884399Y-92274580D01*
X135884399Y-92274580D02*
X135836780Y-92179342D01*
X135836780Y-92179342D02*
X135836780Y-91893628D01*
X135836780Y-91893628D02*
X135884399Y-91798390D01*
X135884399Y-91798390D02*
X135932018Y-91750771D01*
X135932018Y-91750771D02*
X136027256Y-91703152D01*
X136027256Y-91703152D02*
X136217732Y-91703152D01*
X136217732Y-91703152D02*
X136312970Y-91750771D01*
X136693923Y-92369819D02*
X137217732Y-91703152D01*
X136693923Y-91703152D02*
X137217732Y-92369819D01*
X137598685Y-92274580D02*
X137646304Y-92322200D01*
X137646304Y-92322200D02*
X137598685Y-92369819D01*
X137598685Y-92369819D02*
X137551066Y-92322200D01*
X137551066Y-92322200D02*
X137598685Y-92274580D01*
X137598685Y-92274580D02*
X137598685Y-92369819D01*
X138217732Y-92369819D02*
X138122494Y-92322200D01*
X138122494Y-92322200D02*
X138074875Y-92274580D01*
X138074875Y-92274580D02*
X138027256Y-92179342D01*
X138027256Y-92179342D02*
X138027256Y-91893628D01*
X138027256Y-91893628D02*
X138074875Y-91798390D01*
X138074875Y-91798390D02*
X138122494Y-91750771D01*
X138122494Y-91750771D02*
X138217732Y-91703152D01*
X138217732Y-91703152D02*
X138360589Y-91703152D01*
X138360589Y-91703152D02*
X138455827Y-91750771D01*
X138455827Y-91750771D02*
X138503446Y-91798390D01*
X138503446Y-91798390D02*
X138551065Y-91893628D01*
X138551065Y-91893628D02*
X138551065Y-92179342D01*
X138551065Y-92179342D02*
X138503446Y-92274580D01*
X138503446Y-92274580D02*
X138455827Y-92322200D01*
X138455827Y-92322200D02*
X138360589Y-92369819D01*
X138360589Y-92369819D02*
X138217732Y-92369819D01*
X138979637Y-92369819D02*
X138979637Y-91703152D01*
X138979637Y-91893628D02*
X139027256Y-91798390D01*
X139027256Y-91798390D02*
X139074875Y-91750771D01*
X139074875Y-91750771D02*
X139170113Y-91703152D01*
X139170113Y-91703152D02*
X139265351Y-91703152D01*
X140027256Y-91703152D02*
X140027256Y-92512676D01*
X140027256Y-92512676D02*
X139979637Y-92607914D01*
X139979637Y-92607914D02*
X139932018Y-92655533D01*
X139932018Y-92655533D02*
X139836780Y-92703152D01*
X139836780Y-92703152D02*
X139693923Y-92703152D01*
X139693923Y-92703152D02*
X139598685Y-92655533D01*
X140027256Y-92322200D02*
X139932018Y-92369819D01*
X139932018Y-92369819D02*
X139741542Y-92369819D01*
X139741542Y-92369819D02*
X139646304Y-92322200D01*
X139646304Y-92322200D02*
X139598685Y-92274580D01*
X139598685Y-92274580D02*
X139551066Y-92179342D01*
X139551066Y-92179342D02*
X139551066Y-91893628D01*
X139551066Y-91893628D02*
X139598685Y-91798390D01*
X139598685Y-91798390D02*
X139646304Y-91750771D01*
X139646304Y-91750771D02*
X139741542Y-91703152D01*
X139741542Y-91703152D02*
X139932018Y-91703152D01*
X139932018Y-91703152D02*
X140027256Y-91750771D01*
X141217732Y-91322200D02*
X140360590Y-92607914D01*
X141693923Y-92369819D02*
X141598685Y-92322200D01*
X141598685Y-92322200D02*
X141551066Y-92226961D01*
X141551066Y-92226961D02*
X141551066Y-91369819D01*
X142074876Y-92369819D02*
X142074876Y-91703152D01*
X142074876Y-91369819D02*
X142027257Y-91417438D01*
X142027257Y-91417438D02*
X142074876Y-91465057D01*
X142074876Y-91465057D02*
X142122495Y-91417438D01*
X142122495Y-91417438D02*
X142074876Y-91369819D01*
X142074876Y-91369819D02*
X142074876Y-91465057D01*
X142979637Y-92322200D02*
X142884399Y-92369819D01*
X142884399Y-92369819D02*
X142693923Y-92369819D01*
X142693923Y-92369819D02*
X142598685Y-92322200D01*
X142598685Y-92322200D02*
X142551066Y-92274580D01*
X142551066Y-92274580D02*
X142503447Y-92179342D01*
X142503447Y-92179342D02*
X142503447Y-91893628D01*
X142503447Y-91893628D02*
X142551066Y-91798390D01*
X142551066Y-91798390D02*
X142598685Y-91750771D01*
X142598685Y-91750771D02*
X142693923Y-91703152D01*
X142693923Y-91703152D02*
X142884399Y-91703152D01*
X142884399Y-91703152D02*
X142979637Y-91750771D01*
X143789161Y-92322200D02*
X143693923Y-92369819D01*
X143693923Y-92369819D02*
X143503447Y-92369819D01*
X143503447Y-92369819D02*
X143408209Y-92322200D01*
X143408209Y-92322200D02*
X143360590Y-92226961D01*
X143360590Y-92226961D02*
X143360590Y-91846009D01*
X143360590Y-91846009D02*
X143408209Y-91750771D01*
X143408209Y-91750771D02*
X143503447Y-91703152D01*
X143503447Y-91703152D02*
X143693923Y-91703152D01*
X143693923Y-91703152D02*
X143789161Y-91750771D01*
X143789161Y-91750771D02*
X143836780Y-91846009D01*
X143836780Y-91846009D02*
X143836780Y-91941247D01*
X143836780Y-91941247D02*
X143360590Y-92036485D01*
X144265352Y-91703152D02*
X144265352Y-92369819D01*
X144265352Y-91798390D02*
X144312971Y-91750771D01*
X144312971Y-91750771D02*
X144408209Y-91703152D01*
X144408209Y-91703152D02*
X144551066Y-91703152D01*
X144551066Y-91703152D02*
X144646304Y-91750771D01*
X144646304Y-91750771D02*
X144693923Y-91846009D01*
X144693923Y-91846009D02*
X144693923Y-92369819D01*
X145122495Y-92322200D02*
X145217733Y-92369819D01*
X145217733Y-92369819D02*
X145408209Y-92369819D01*
X145408209Y-92369819D02*
X145503447Y-92322200D01*
X145503447Y-92322200D02*
X145551066Y-92226961D01*
X145551066Y-92226961D02*
X145551066Y-92179342D01*
X145551066Y-92179342D02*
X145503447Y-92084104D01*
X145503447Y-92084104D02*
X145408209Y-92036485D01*
X145408209Y-92036485D02*
X145265352Y-92036485D01*
X145265352Y-92036485D02*
X145170114Y-91988866D01*
X145170114Y-91988866D02*
X145122495Y-91893628D01*
X145122495Y-91893628D02*
X145122495Y-91846009D01*
X145122495Y-91846009D02*
X145170114Y-91750771D01*
X145170114Y-91750771D02*
X145265352Y-91703152D01*
X145265352Y-91703152D02*
X145408209Y-91703152D01*
X145408209Y-91703152D02*
X145503447Y-91750771D01*
X146360590Y-92322200D02*
X146265352Y-92369819D01*
X146265352Y-92369819D02*
X146074876Y-92369819D01*
X146074876Y-92369819D02*
X145979638Y-92322200D01*
X145979638Y-92322200D02*
X145932019Y-92226961D01*
X145932019Y-92226961D02*
X145932019Y-91846009D01*
X145932019Y-91846009D02*
X145979638Y-91750771D01*
X145979638Y-91750771D02*
X146074876Y-91703152D01*
X146074876Y-91703152D02*
X146265352Y-91703152D01*
X146265352Y-91703152D02*
X146360590Y-91750771D01*
X146360590Y-91750771D02*
X146408209Y-91846009D01*
X146408209Y-91846009D02*
X146408209Y-91941247D01*
X146408209Y-91941247D02*
X145932019Y-92036485D01*
X146789162Y-92322200D02*
X146884400Y-92369819D01*
X146884400Y-92369819D02*
X147074876Y-92369819D01*
X147074876Y-92369819D02*
X147170114Y-92322200D01*
X147170114Y-92322200D02*
X147217733Y-92226961D01*
X147217733Y-92226961D02*
X147217733Y-92179342D01*
X147217733Y-92179342D02*
X147170114Y-92084104D01*
X147170114Y-92084104D02*
X147074876Y-92036485D01*
X147074876Y-92036485D02*
X146932019Y-92036485D01*
X146932019Y-92036485D02*
X146836781Y-91988866D01*
X146836781Y-91988866D02*
X146789162Y-91893628D01*
X146789162Y-91893628D02*
X146789162Y-91846009D01*
X146789162Y-91846009D02*
X146836781Y-91750771D01*
X146836781Y-91750771D02*
X146932019Y-91703152D01*
X146932019Y-91703152D02*
X147074876Y-91703152D01*
X147074876Y-91703152D02*
X147170114Y-91750771D01*
X148360590Y-91322200D02*
X147503448Y-92607914D01*
X149265352Y-92274580D02*
X149217733Y-92322200D01*
X149217733Y-92322200D02*
X149074876Y-92369819D01*
X149074876Y-92369819D02*
X148979638Y-92369819D01*
X148979638Y-92369819D02*
X148836781Y-92322200D01*
X148836781Y-92322200D02*
X148741543Y-92226961D01*
X148741543Y-92226961D02*
X148693924Y-92131723D01*
X148693924Y-92131723D02*
X148646305Y-91941247D01*
X148646305Y-91941247D02*
X148646305Y-91798390D01*
X148646305Y-91798390D02*
X148693924Y-91607914D01*
X148693924Y-91607914D02*
X148741543Y-91512676D01*
X148741543Y-91512676D02*
X148836781Y-91417438D01*
X148836781Y-91417438D02*
X148979638Y-91369819D01*
X148979638Y-91369819D02*
X149074876Y-91369819D01*
X149074876Y-91369819D02*
X149217733Y-91417438D01*
X149217733Y-91417438D02*
X149265352Y-91465057D01*
X149693924Y-91846009D02*
X150027257Y-91846009D01*
X150170114Y-92369819D02*
X149693924Y-92369819D01*
X149693924Y-92369819D02*
X149693924Y-91369819D01*
X149693924Y-91369819D02*
X150170114Y-91369819D01*
X151170114Y-92369819D02*
X150836781Y-91893628D01*
X150598686Y-92369819D02*
X150598686Y-91369819D01*
X150598686Y-91369819D02*
X150979638Y-91369819D01*
X150979638Y-91369819D02*
X151074876Y-91417438D01*
X151074876Y-91417438D02*
X151122495Y-91465057D01*
X151122495Y-91465057D02*
X151170114Y-91560295D01*
X151170114Y-91560295D02*
X151170114Y-91703152D01*
X151170114Y-91703152D02*
X151122495Y-91798390D01*
X151122495Y-91798390D02*
X151074876Y-91846009D01*
X151074876Y-91846009D02*
X150979638Y-91893628D01*
X150979638Y-91893628D02*
X150598686Y-91893628D01*
X151598686Y-92369819D02*
X151598686Y-91369819D01*
X151598686Y-91369819D02*
X152170114Y-92369819D01*
X152170114Y-92369819D02*
X152170114Y-91369819D01*
X152646305Y-91988866D02*
X153408210Y-91988866D01*
X154074876Y-91369819D02*
X154265352Y-91369819D01*
X154265352Y-91369819D02*
X154360590Y-91417438D01*
X154360590Y-91417438D02*
X154455828Y-91512676D01*
X154455828Y-91512676D02*
X154503447Y-91703152D01*
X154503447Y-91703152D02*
X154503447Y-92036485D01*
X154503447Y-92036485D02*
X154455828Y-92226961D01*
X154455828Y-92226961D02*
X154360590Y-92322200D01*
X154360590Y-92322200D02*
X154265352Y-92369819D01*
X154265352Y-92369819D02*
X154074876Y-92369819D01*
X154074876Y-92369819D02*
X153979638Y-92322200D01*
X153979638Y-92322200D02*
X153884400Y-92226961D01*
X153884400Y-92226961D02*
X153836781Y-92036485D01*
X153836781Y-92036485D02*
X153836781Y-91703152D01*
X153836781Y-91703152D02*
X153884400Y-91512676D01*
X153884400Y-91512676D02*
X153979638Y-91417438D01*
X153979638Y-91417438D02*
X154074876Y-91369819D01*
X154932019Y-92369819D02*
X154932019Y-91369819D01*
X154932019Y-91846009D02*
X155503447Y-91846009D01*
X155503447Y-92369819D02*
X155503447Y-91369819D01*
X156455828Y-92369819D02*
X155979638Y-92369819D01*
X155979638Y-92369819D02*
X155979638Y-91369819D01*
X156789162Y-91988866D02*
X157551067Y-91988866D01*
X158027257Y-92369819D02*
X158027257Y-91369819D01*
X158027257Y-91369819D02*
X158408209Y-91369819D01*
X158408209Y-91369819D02*
X158503447Y-91417438D01*
X158503447Y-91417438D02*
X158551066Y-91465057D01*
X158551066Y-91465057D02*
X158598685Y-91560295D01*
X158598685Y-91560295D02*
X158598685Y-91703152D01*
X158598685Y-91703152D02*
X158551066Y-91798390D01*
X158551066Y-91798390D02*
X158503447Y-91846009D01*
X158503447Y-91846009D02*
X158408209Y-91893628D01*
X158408209Y-91893628D02*
X158027257Y-91893628D01*
X159027257Y-91988866D02*
X159789162Y-91988866D01*
X160217733Y-91465057D02*
X160265352Y-91417438D01*
X160265352Y-91417438D02*
X160360590Y-91369819D01*
X160360590Y-91369819D02*
X160598685Y-91369819D01*
X160598685Y-91369819D02*
X160693923Y-91417438D01*
X160693923Y-91417438D02*
X160741542Y-91465057D01*
X160741542Y-91465057D02*
X160789161Y-91560295D01*
X160789161Y-91560295D02*
X160789161Y-91655533D01*
X160789161Y-91655533D02*
X160741542Y-91798390D01*
X160741542Y-91798390D02*
X160170114Y-92369819D01*
X160170114Y-92369819D02*
X160789161Y-92369819D01*
X161217733Y-92274580D02*
X161265352Y-92322200D01*
X161265352Y-92322200D02*
X161217733Y-92369819D01*
X161217733Y-92369819D02*
X161170114Y-92322200D01*
X161170114Y-92322200D02*
X161217733Y-92274580D01*
X161217733Y-92274580D02*
X161217733Y-92369819D01*
X161884399Y-91369819D02*
X161979637Y-91369819D01*
X161979637Y-91369819D02*
X162074875Y-91417438D01*
X162074875Y-91417438D02*
X162122494Y-91465057D01*
X162122494Y-91465057D02*
X162170113Y-91560295D01*
X162170113Y-91560295D02*
X162217732Y-91750771D01*
X162217732Y-91750771D02*
X162217732Y-91988866D01*
X162217732Y-91988866D02*
X162170113Y-92179342D01*
X162170113Y-92179342D02*
X162122494Y-92274580D01*
X162122494Y-92274580D02*
X162074875Y-92322200D01*
X162074875Y-92322200D02*
X161979637Y-92369819D01*
X161979637Y-92369819D02*
X161884399Y-92369819D01*
X161884399Y-92369819D02*
X161789161Y-92322200D01*
X161789161Y-92322200D02*
X161741542Y-92274580D01*
X161741542Y-92274580D02*
X161693923Y-92179342D01*
X161693923Y-92179342D02*
X161646304Y-91988866D01*
X161646304Y-91988866D02*
X161646304Y-91750771D01*
X161646304Y-91750771D02*
X161693923Y-91560295D01*
X161693923Y-91560295D02*
X161741542Y-91465057D01*
X161741542Y-91465057D02*
X161789161Y-91417438D01*
X161789161Y-91417438D02*
X161884399Y-91369819D01*
X162646304Y-92274580D02*
X162693923Y-92322200D01*
X162693923Y-92322200D02*
X162646304Y-92369819D01*
X162646304Y-92369819D02*
X162598685Y-92322200D01*
X162598685Y-92322200D02*
X162646304Y-92274580D01*
X162646304Y-92274580D02*
X162646304Y-92369819D01*
X163122494Y-92369819D02*
X163122494Y-91369819D01*
X163551065Y-92369819D02*
X163551065Y-91846009D01*
X163551065Y-91846009D02*
X163503446Y-91750771D01*
X163503446Y-91750771D02*
X163408208Y-91703152D01*
X163408208Y-91703152D02*
X163265351Y-91703152D01*
X163265351Y-91703152D02*
X163170113Y-91750771D01*
X163170113Y-91750771D02*
X163122494Y-91798390D01*
X163884399Y-91703152D02*
X164265351Y-91703152D01*
X164027256Y-91369819D02*
X164027256Y-92226961D01*
X164027256Y-92226961D02*
X164074875Y-92322200D01*
X164074875Y-92322200D02*
X164170113Y-92369819D01*
X164170113Y-92369819D02*
X164265351Y-92369819D01*
X164598685Y-92369819D02*
X164598685Y-91703152D01*
X164598685Y-91798390D02*
X164646304Y-91750771D01*
X164646304Y-91750771D02*
X164741542Y-91703152D01*
X164741542Y-91703152D02*
X164884399Y-91703152D01*
X164884399Y-91703152D02*
X164979637Y-91750771D01*
X164979637Y-91750771D02*
X165027256Y-91846009D01*
X165027256Y-91846009D02*
X165027256Y-92369819D01*
X165027256Y-91846009D02*
X165074875Y-91750771D01*
X165074875Y-91750771D02*
X165170113Y-91703152D01*
X165170113Y-91703152D02*
X165312970Y-91703152D01*
X165312970Y-91703152D02*
X165408209Y-91750771D01*
X165408209Y-91750771D02*
X165455828Y-91846009D01*
X165455828Y-91846009D02*
X165455828Y-92369819D01*
X166074875Y-92369819D02*
X165979637Y-92322200D01*
X165979637Y-92322200D02*
X165932018Y-92226961D01*
X165932018Y-92226961D02*
X165932018Y-91369819D01*
X112829819Y-92833333D02*
X113544104Y-92833333D01*
X113544104Y-92833333D02*
X113686961Y-92880952D01*
X113686961Y-92880952D02*
X113782200Y-92976190D01*
X113782200Y-92976190D02*
X113829819Y-93119047D01*
X113829819Y-93119047D02*
X113829819Y-93214285D01*
X112829819Y-92452380D02*
X112829819Y-91833333D01*
X112829819Y-91833333D02*
X113210771Y-92166666D01*
X113210771Y-92166666D02*
X113210771Y-92023809D01*
X113210771Y-92023809D02*
X113258390Y-91928571D01*
X113258390Y-91928571D02*
X113306009Y-91880952D01*
X113306009Y-91880952D02*
X113401247Y-91833333D01*
X113401247Y-91833333D02*
X113639342Y-91833333D01*
X113639342Y-91833333D02*
X113734580Y-91880952D01*
X113734580Y-91880952D02*
X113782200Y-91928571D01*
X113782200Y-91928571D02*
X113829819Y-92023809D01*
X113829819Y-92023809D02*
X113829819Y-92309523D01*
X113829819Y-92309523D02*
X113782200Y-92404761D01*
X113782200Y-92404761D02*
X113734580Y-92452380D01*
X124284819Y-71704166D02*
X123808628Y-72037499D01*
X124284819Y-72275594D02*
X123284819Y-72275594D01*
X123284819Y-72275594D02*
X123284819Y-71894642D01*
X123284819Y-71894642D02*
X123332438Y-71799404D01*
X123332438Y-71799404D02*
X123380057Y-71751785D01*
X123380057Y-71751785D02*
X123475295Y-71704166D01*
X123475295Y-71704166D02*
X123618152Y-71704166D01*
X123618152Y-71704166D02*
X123713390Y-71751785D01*
X123713390Y-71751785D02*
X123761009Y-71799404D01*
X123761009Y-71799404D02*
X123808628Y-71894642D01*
X123808628Y-71894642D02*
X123808628Y-72275594D01*
X123284819Y-70847023D02*
X123284819Y-71037499D01*
X123284819Y-71037499D02*
X123332438Y-71132737D01*
X123332438Y-71132737D02*
X123380057Y-71180356D01*
X123380057Y-71180356D02*
X123522914Y-71275594D01*
X123522914Y-71275594D02*
X123713390Y-71323213D01*
X123713390Y-71323213D02*
X124094342Y-71323213D01*
X124094342Y-71323213D02*
X124189580Y-71275594D01*
X124189580Y-71275594D02*
X124237200Y-71227975D01*
X124237200Y-71227975D02*
X124284819Y-71132737D01*
X124284819Y-71132737D02*
X124284819Y-70942261D01*
X124284819Y-70942261D02*
X124237200Y-70847023D01*
X124237200Y-70847023D02*
X124189580Y-70799404D01*
X124189580Y-70799404D02*
X124094342Y-70751785D01*
X124094342Y-70751785D02*
X123856247Y-70751785D01*
X123856247Y-70751785D02*
X123761009Y-70799404D01*
X123761009Y-70799404D02*
X123713390Y-70847023D01*
X123713390Y-70847023D02*
X123665771Y-70942261D01*
X123665771Y-70942261D02*
X123665771Y-71132737D01*
X123665771Y-71132737D02*
X123713390Y-71227975D01*
X123713390Y-71227975D02*
X123761009Y-71275594D01*
X123761009Y-71275594D02*
X123856247Y-71323213D01*
X152501905Y-63454819D02*
X152501905Y-62454819D01*
X152501905Y-62454819D02*
X152740000Y-62454819D01*
X152740000Y-62454819D02*
X152882857Y-62502438D01*
X152882857Y-62502438D02*
X152978095Y-62597676D01*
X152978095Y-62597676D02*
X153025714Y-62692914D01*
X153025714Y-62692914D02*
X153073333Y-62883390D01*
X153073333Y-62883390D02*
X153073333Y-63026247D01*
X153073333Y-63026247D02*
X153025714Y-63216723D01*
X153025714Y-63216723D02*
X152978095Y-63311961D01*
X152978095Y-63311961D02*
X152882857Y-63407200D01*
X152882857Y-63407200D02*
X152740000Y-63454819D01*
X152740000Y-63454819D02*
X152501905Y-63454819D01*
X154025714Y-63454819D02*
X153454286Y-63454819D01*
X153740000Y-63454819D02*
X153740000Y-62454819D01*
X153740000Y-62454819D02*
X153644762Y-62597676D01*
X153644762Y-62597676D02*
X153549524Y-62692914D01*
X153549524Y-62692914D02*
X153454286Y-62740533D01*
X146261905Y-66454819D02*
X146261905Y-65454819D01*
X146833333Y-66454819D02*
X146404762Y-65883390D01*
X146833333Y-65454819D02*
X146261905Y-66026247D01*
X147214286Y-65550057D02*
X147261905Y-65502438D01*
X147261905Y-65502438D02*
X147357143Y-65454819D01*
X147357143Y-65454819D02*
X147595238Y-65454819D01*
X147595238Y-65454819D02*
X147690476Y-65502438D01*
X147690476Y-65502438D02*
X147738095Y-65550057D01*
X147738095Y-65550057D02*
X147785714Y-65645295D01*
X147785714Y-65645295D02*
X147785714Y-65740533D01*
X147785714Y-65740533D02*
X147738095Y-65883390D01*
X147738095Y-65883390D02*
X147166667Y-66454819D01*
X147166667Y-66454819D02*
X147785714Y-66454819D01*
X171454819Y-73323333D02*
X172169104Y-73323333D01*
X172169104Y-73323333D02*
X172311961Y-73370952D01*
X172311961Y-73370952D02*
X172407200Y-73466190D01*
X172407200Y-73466190D02*
X172454819Y-73609047D01*
X172454819Y-73609047D02*
X172454819Y-73704285D01*
X171454819Y-72370952D02*
X171454819Y-72847142D01*
X171454819Y-72847142D02*
X171931009Y-72894761D01*
X171931009Y-72894761D02*
X171883390Y-72847142D01*
X171883390Y-72847142D02*
X171835771Y-72751904D01*
X171835771Y-72751904D02*
X171835771Y-72513809D01*
X171835771Y-72513809D02*
X171883390Y-72418571D01*
X171883390Y-72418571D02*
X171931009Y-72370952D01*
X171931009Y-72370952D02*
X172026247Y-72323333D01*
X172026247Y-72323333D02*
X172264342Y-72323333D01*
X172264342Y-72323333D02*
X172359580Y-72370952D01*
X172359580Y-72370952D02*
X172407200Y-72418571D01*
X172407200Y-72418571D02*
X172454819Y-72513809D01*
X172454819Y-72513809D02*
X172454819Y-72751904D01*
X172454819Y-72751904D02*
X172407200Y-72847142D01*
X172407200Y-72847142D02*
X172359580Y-72894761D01*
X172454819Y-52033333D02*
X173169104Y-52033333D01*
X173169104Y-52033333D02*
X173311961Y-52080952D01*
X173311961Y-52080952D02*
X173407200Y-52176190D01*
X173407200Y-52176190D02*
X173454819Y-52319047D01*
X173454819Y-52319047D02*
X173454819Y-52414285D01*
X172788152Y-51128571D02*
X173454819Y-51128571D01*
X172407200Y-51366666D02*
X173121485Y-51604761D01*
X173121485Y-51604761D02*
X173121485Y-50985714D01*
X147284819Y-71704166D02*
X146808628Y-72037499D01*
X147284819Y-72275594D02*
X146284819Y-72275594D01*
X146284819Y-72275594D02*
X146284819Y-71894642D01*
X146284819Y-71894642D02*
X146332438Y-71799404D01*
X146332438Y-71799404D02*
X146380057Y-71751785D01*
X146380057Y-71751785D02*
X146475295Y-71704166D01*
X146475295Y-71704166D02*
X146618152Y-71704166D01*
X146618152Y-71704166D02*
X146713390Y-71751785D01*
X146713390Y-71751785D02*
X146761009Y-71799404D01*
X146761009Y-71799404D02*
X146808628Y-71894642D01*
X146808628Y-71894642D02*
X146808628Y-72275594D01*
X146284819Y-70799404D02*
X146284819Y-71275594D01*
X146284819Y-71275594D02*
X146761009Y-71323213D01*
X146761009Y-71323213D02*
X146713390Y-71275594D01*
X146713390Y-71275594D02*
X146665771Y-71180356D01*
X146665771Y-71180356D02*
X146665771Y-70942261D01*
X146665771Y-70942261D02*
X146713390Y-70847023D01*
X146713390Y-70847023D02*
X146761009Y-70799404D01*
X146761009Y-70799404D02*
X146856247Y-70751785D01*
X146856247Y-70751785D02*
X147094342Y-70751785D01*
X147094342Y-70751785D02*
X147189580Y-70799404D01*
X147189580Y-70799404D02*
X147237200Y-70847023D01*
X147237200Y-70847023D02*
X147284819Y-70942261D01*
X147284819Y-70942261D02*
X147284819Y-71180356D01*
X147284819Y-71180356D02*
X147237200Y-71275594D01*
X147237200Y-71275594D02*
X147189580Y-71323213D01*
X128841905Y-63454819D02*
X128841905Y-62454819D01*
X128841905Y-62454819D02*
X129080000Y-62454819D01*
X129080000Y-62454819D02*
X129222857Y-62502438D01*
X129222857Y-62502438D02*
X129318095Y-62597676D01*
X129318095Y-62597676D02*
X129365714Y-62692914D01*
X129365714Y-62692914D02*
X129413333Y-62883390D01*
X129413333Y-62883390D02*
X129413333Y-63026247D01*
X129413333Y-63026247D02*
X129365714Y-63216723D01*
X129365714Y-63216723D02*
X129318095Y-63311961D01*
X129318095Y-63311961D02*
X129222857Y-63407200D01*
X129222857Y-63407200D02*
X129080000Y-63454819D01*
X129080000Y-63454819D02*
X128841905Y-63454819D01*
X129794286Y-62550057D02*
X129841905Y-62502438D01*
X129841905Y-62502438D02*
X129937143Y-62454819D01*
X129937143Y-62454819D02*
X130175238Y-62454819D01*
X130175238Y-62454819D02*
X130270476Y-62502438D01*
X130270476Y-62502438D02*
X130318095Y-62550057D01*
X130318095Y-62550057D02*
X130365714Y-62645295D01*
X130365714Y-62645295D02*
X130365714Y-62740533D01*
X130365714Y-62740533D02*
X130318095Y-62883390D01*
X130318095Y-62883390D02*
X129746667Y-63454819D01*
X129746667Y-63454819D02*
X130365714Y-63454819D01*
X123761905Y-66454819D02*
X123761905Y-65454819D01*
X124333333Y-66454819D02*
X123904762Y-65883390D01*
X124333333Y-65454819D02*
X123761905Y-66026247D01*
X125285714Y-66454819D02*
X124714286Y-66454819D01*
X125000000Y-66454819D02*
X125000000Y-65454819D01*
X125000000Y-65454819D02*
X124904762Y-65597676D01*
X124904762Y-65597676D02*
X124809524Y-65692914D01*
X124809524Y-65692914D02*
X124714286Y-65740533D01*
X132870833Y-57784819D02*
X132537500Y-57308628D01*
X132299405Y-57784819D02*
X132299405Y-56784819D01*
X132299405Y-56784819D02*
X132680357Y-56784819D01*
X132680357Y-56784819D02*
X132775595Y-56832438D01*
X132775595Y-56832438D02*
X132823214Y-56880057D01*
X132823214Y-56880057D02*
X132870833Y-56975295D01*
X132870833Y-56975295D02*
X132870833Y-57118152D01*
X132870833Y-57118152D02*
X132823214Y-57213390D01*
X132823214Y-57213390D02*
X132775595Y-57261009D01*
X132775595Y-57261009D02*
X132680357Y-57308628D01*
X132680357Y-57308628D02*
X132299405Y-57308628D01*
X133727976Y-57118152D02*
X133727976Y-57784819D01*
X133489881Y-56737200D02*
X133251786Y-57451485D01*
X133251786Y-57451485D02*
X133870833Y-57451485D01*
X121238095Y-90304819D02*
X121238095Y-89304819D01*
X121238095Y-89781009D02*
X121809523Y-89781009D01*
X121809523Y-90304819D02*
X121809523Y-89304819D01*
X122809523Y-90304819D02*
X122238095Y-90304819D01*
X122523809Y-90304819D02*
X122523809Y-89304819D01*
X122523809Y-89304819D02*
X122428571Y-89447676D01*
X122428571Y-89447676D02*
X122333333Y-89542914D01*
X122333333Y-89542914D02*
X122238095Y-89590533D01*
X145340057Y-58095238D02*
X145292438Y-58190476D01*
X145292438Y-58190476D02*
X145197200Y-58285714D01*
X145197200Y-58285714D02*
X145054342Y-58428571D01*
X145054342Y-58428571D02*
X145006723Y-58523809D01*
X145006723Y-58523809D02*
X145006723Y-58619047D01*
X145244819Y-58571428D02*
X145197200Y-58666666D01*
X145197200Y-58666666D02*
X145101961Y-58761904D01*
X145101961Y-58761904D02*
X144911485Y-58809523D01*
X144911485Y-58809523D02*
X144578152Y-58809523D01*
X144578152Y-58809523D02*
X144387676Y-58761904D01*
X144387676Y-58761904D02*
X144292438Y-58666666D01*
X144292438Y-58666666D02*
X144244819Y-58571428D01*
X144244819Y-58571428D02*
X144244819Y-58380952D01*
X144244819Y-58380952D02*
X144292438Y-58285714D01*
X144292438Y-58285714D02*
X144387676Y-58190476D01*
X144387676Y-58190476D02*
X144578152Y-58142857D01*
X144578152Y-58142857D02*
X144911485Y-58142857D01*
X144911485Y-58142857D02*
X145101961Y-58190476D01*
X145101961Y-58190476D02*
X145197200Y-58285714D01*
X145197200Y-58285714D02*
X145244819Y-58380952D01*
X145244819Y-58380952D02*
X145244819Y-58571428D01*
X144340057Y-57761904D02*
X144292438Y-57714285D01*
X144292438Y-57714285D02*
X144244819Y-57619047D01*
X144244819Y-57619047D02*
X144244819Y-57380952D01*
X144244819Y-57380952D02*
X144292438Y-57285714D01*
X144292438Y-57285714D02*
X144340057Y-57238095D01*
X144340057Y-57238095D02*
X144435295Y-57190476D01*
X144435295Y-57190476D02*
X144530533Y-57190476D01*
X144530533Y-57190476D02*
X144673390Y-57238095D01*
X144673390Y-57238095D02*
X145244819Y-57809523D01*
X145244819Y-57809523D02*
X145244819Y-57190476D01*
X155870833Y-54124819D02*
X155537500Y-53648628D01*
X155299405Y-54124819D02*
X155299405Y-53124819D01*
X155299405Y-53124819D02*
X155680357Y-53124819D01*
X155680357Y-53124819D02*
X155775595Y-53172438D01*
X155775595Y-53172438D02*
X155823214Y-53220057D01*
X155823214Y-53220057D02*
X155870833Y-53315295D01*
X155870833Y-53315295D02*
X155870833Y-53458152D01*
X155870833Y-53458152D02*
X155823214Y-53553390D01*
X155823214Y-53553390D02*
X155775595Y-53601009D01*
X155775595Y-53601009D02*
X155680357Y-53648628D01*
X155680357Y-53648628D02*
X155299405Y-53648628D01*
X156204167Y-53124819D02*
X156823214Y-53124819D01*
X156823214Y-53124819D02*
X156489881Y-53505771D01*
X156489881Y-53505771D02*
X156632738Y-53505771D01*
X156632738Y-53505771D02*
X156727976Y-53553390D01*
X156727976Y-53553390D02*
X156775595Y-53601009D01*
X156775595Y-53601009D02*
X156823214Y-53696247D01*
X156823214Y-53696247D02*
X156823214Y-53934342D01*
X156823214Y-53934342D02*
X156775595Y-54029580D01*
X156775595Y-54029580D02*
X156727976Y-54077200D01*
X156727976Y-54077200D02*
X156632738Y-54124819D01*
X156632738Y-54124819D02*
X156347024Y-54124819D01*
X156347024Y-54124819D02*
X156251786Y-54077200D01*
X156251786Y-54077200D02*
X156204167Y-54029580D01*
X168340057Y-58095238D02*
X168292438Y-58190476D01*
X168292438Y-58190476D02*
X168197200Y-58285714D01*
X168197200Y-58285714D02*
X168054342Y-58428571D01*
X168054342Y-58428571D02*
X168006723Y-58523809D01*
X168006723Y-58523809D02*
X168006723Y-58619047D01*
X168244819Y-58571428D02*
X168197200Y-58666666D01*
X168197200Y-58666666D02*
X168101961Y-58761904D01*
X168101961Y-58761904D02*
X167911485Y-58809523D01*
X167911485Y-58809523D02*
X167578152Y-58809523D01*
X167578152Y-58809523D02*
X167387676Y-58761904D01*
X167387676Y-58761904D02*
X167292438Y-58666666D01*
X167292438Y-58666666D02*
X167244819Y-58571428D01*
X167244819Y-58571428D02*
X167244819Y-58380952D01*
X167244819Y-58380952D02*
X167292438Y-58285714D01*
X167292438Y-58285714D02*
X167387676Y-58190476D01*
X167387676Y-58190476D02*
X167578152Y-58142857D01*
X167578152Y-58142857D02*
X167911485Y-58142857D01*
X167911485Y-58142857D02*
X168101961Y-58190476D01*
X168101961Y-58190476D02*
X168197200Y-58285714D01*
X168197200Y-58285714D02*
X168244819Y-58380952D01*
X168244819Y-58380952D02*
X168244819Y-58571428D01*
X168244819Y-57190476D02*
X168244819Y-57761904D01*
X168244819Y-57476190D02*
X167244819Y-57476190D01*
X167244819Y-57476190D02*
X167387676Y-57571428D01*
X167387676Y-57571428D02*
X167482914Y-57666666D01*
X167482914Y-57666666D02*
X167530533Y-57761904D01*
X112829819Y-71317333D02*
X113544104Y-71317333D01*
X113544104Y-71317333D02*
X113686961Y-71364952D01*
X113686961Y-71364952D02*
X113782200Y-71460190D01*
X113782200Y-71460190D02*
X113829819Y-71603047D01*
X113829819Y-71603047D02*
X113829819Y-71698285D01*
X112925057Y-70888761D02*
X112877438Y-70841142D01*
X112877438Y-70841142D02*
X112829819Y-70745904D01*
X112829819Y-70745904D02*
X112829819Y-70507809D01*
X112829819Y-70507809D02*
X112877438Y-70412571D01*
X112877438Y-70412571D02*
X112925057Y-70364952D01*
X112925057Y-70364952D02*
X113020295Y-70317333D01*
X113020295Y-70317333D02*
X113115533Y-70317333D01*
X113115533Y-70317333D02*
X113258390Y-70364952D01*
X113258390Y-70364952D02*
X113829819Y-70936380D01*
X113829819Y-70936380D02*
X113829819Y-70317333D01*
D11*
X97890000Y-74275000D02*
X105500000Y-74275000D01*
X97890000Y-91005000D02*
X97890000Y-74275000D01*
X97890000Y-91005000D02*
X105500000Y-91005000D01*
X104800000Y-91700000D02*
X105300000Y-91200000D01*
X105300000Y-91200000D02*
X105800000Y-91700000D01*
X105800000Y-91700000D02*
X104800000Y-91700000D01*
X113860000Y-74275000D02*
X108300000Y-74275000D01*
X113860000Y-91005000D02*
X108300000Y-91005000D01*
X113860000Y-91005000D02*
X113860000Y-74275000D01*
X148700000Y-84950000D02*
X148700000Y-65150000D01*
X150450000Y-70100000D02*
X150450000Y-72600000D01*
X152300000Y-80700000D02*
X154750000Y-80700000D01*
X152850000Y-76000000D02*
X152850000Y-69200000D01*
X154650000Y-70600000D02*
X158250000Y-70600000D01*
X154650000Y-72600000D02*
X150450000Y-72600000D01*
X154650000Y-74600000D02*
X154650000Y-70600000D01*
X154650000Y-74600000D02*
X158250000Y-70600000D01*
X155300000Y-65150000D02*
X148700000Y-65150000D01*
X156450000Y-69200000D02*
X152850000Y-69200000D01*
X156450000Y-69200000D02*
X156450000Y-68400000D01*
X156450000Y-76000000D02*
X152850000Y-76000000D01*
X156450000Y-76000000D02*
X156450000Y-77500000D01*
X156450000Y-77500000D02*
X158950000Y-82100000D01*
X158250000Y-70600000D02*
X158250000Y-74600000D01*
X158250000Y-74600000D02*
X154650000Y-74600000D01*
X160700000Y-80700000D02*
X158200000Y-80700000D01*
X162450000Y-72600000D02*
X158250000Y-72600000D01*
X162450000Y-72600000D02*
X162450000Y-70100000D01*
X164300000Y-65150000D02*
X157700000Y-65150000D01*
X164300000Y-65150000D02*
X164300000Y-84950000D01*
X164300000Y-84950000D02*
X148700000Y-84950000D01*
X121090000Y-70810436D02*
X121090000Y-72264564D01*
X122910000Y-70810436D02*
X122910000Y-72264564D01*
X125700000Y-84900000D02*
X125700000Y-65100000D01*
X127450000Y-70050000D02*
X127450000Y-72550000D01*
X129300000Y-80650000D02*
X131750000Y-80650000D01*
X129850000Y-75950000D02*
X129850000Y-69150000D01*
X131650000Y-70550000D02*
X135250000Y-70550000D01*
X131650000Y-72550000D02*
X127450000Y-72550000D01*
X131650000Y-74550000D02*
X131650000Y-70550000D01*
X131650000Y-74550000D02*
X135250000Y-70550000D01*
X132300000Y-65100000D02*
X125700000Y-65100000D01*
X133450000Y-69150000D02*
X129850000Y-69150000D01*
X133450000Y-69150000D02*
X133450000Y-68350000D01*
X133450000Y-75950000D02*
X129850000Y-75950000D01*
X133450000Y-75950000D02*
X133450000Y-77450000D01*
X133450000Y-77450000D02*
X135950000Y-82050000D01*
X135250000Y-70550000D02*
X135250000Y-74550000D01*
X135250000Y-74550000D02*
X131650000Y-74550000D01*
X137700000Y-80650000D02*
X135200000Y-80650000D01*
X139450000Y-72550000D02*
X135250000Y-72550000D01*
X139450000Y-72550000D02*
X139450000Y-70050000D01*
X141300000Y-65100000D02*
X134700000Y-65100000D01*
X141300000Y-65100000D02*
X141300000Y-84900000D01*
X141300000Y-84900000D02*
X125700000Y-84900000D01*
X149420000Y-60500000D02*
X150440000Y-60500000D01*
X154860000Y-61970000D02*
X154860000Y-59030000D01*
X154980000Y-61970000D02*
X154980000Y-59030000D01*
X155100000Y-61970000D02*
X155100000Y-59030000D01*
X156900000Y-60500000D02*
X155880000Y-60500000D01*
X150440000Y-59030000D02*
X155880000Y-59030000D01*
X155880000Y-61970000D01*
X150440000Y-61970000D01*
X150440000Y-59030000D01*
X171100000Y-74265000D02*
X171100000Y-90995000D01*
X171100000Y-74265000D02*
X176660000Y-74265000D01*
X171100000Y-90995000D02*
X176660000Y-90995000D01*
X179160000Y-73570000D02*
X180160000Y-73570000D01*
X179660000Y-74070000D02*
X179160000Y-73570000D01*
X180160000Y-73570000D02*
X179660000Y-74070000D01*
X187070000Y-74265000D02*
X179460000Y-74265000D01*
X187070000Y-74265000D02*
X187070000Y-90995000D01*
X187070000Y-90995000D02*
X179460000Y-90995000D01*
X171100000Y-53195000D02*
X171100000Y-69925000D01*
X171100000Y-53195000D02*
X176660000Y-53195000D01*
X171100000Y-69925000D02*
X176660000Y-69925000D01*
X179160000Y-52500000D02*
X180160000Y-52500000D01*
X179660000Y-53000000D02*
X179160000Y-52500000D01*
X180160000Y-52500000D02*
X179660000Y-53000000D01*
X187070000Y-53195000D02*
X179460000Y-53195000D01*
X187070000Y-53195000D02*
X187070000Y-69925000D01*
X187070000Y-69925000D02*
X179460000Y-69925000D01*
X144090000Y-70810436D02*
X144090000Y-72264564D01*
X145910000Y-70810436D02*
X145910000Y-72264564D01*
X126260000Y-60500000D02*
X127280000Y-60500000D01*
X131700000Y-61970000D02*
X131700000Y-59030000D01*
X131820000Y-61970000D02*
X131820000Y-59030000D01*
X131940000Y-61970000D02*
X131940000Y-59030000D01*
X133740000Y-60500000D02*
X132720000Y-60500000D01*
X127280000Y-59030000D02*
X132720000Y-59030000D01*
X132720000Y-61970000D01*
X127280000Y-61970000D01*
X127280000Y-59030000D01*
X133764564Y-54590000D02*
X132310436Y-54590000D01*
X133764564Y-56410000D02*
X132310436Y-56410000D01*
X139380000Y-56200000D02*
X139380000Y-59800000D01*
X139391522Y-56161522D02*
G75*
G02*
X143830001Y-58000000I1838478J-1838478D01*
G01*
X143830000Y-58000000D02*
G75*
G02*
X139391522Y-59838478I-2600000J0D01*
G01*
X155310436Y-54590000D02*
X156764564Y-54590000D01*
X155310436Y-56410000D02*
X156764564Y-56410000D01*
X162380000Y-56200000D02*
X162380000Y-59800000D01*
X162391522Y-56161522D02*
G75*
G02*
X166830001Y-58000000I1838478J-1838478D01*
G01*
X166830000Y-58000000D02*
G75*
G02*
X162391522Y-59838478I-2600000J0D01*
G01*
X97890000Y-53075000D02*
X105500000Y-53075000D01*
X97890000Y-69805000D02*
X97890000Y-53075000D01*
X97890000Y-69805000D02*
X105500000Y-69805000D01*
X104800000Y-70500000D02*
X105300000Y-70000000D01*
X105300000Y-70000000D02*
X105800000Y-70500000D01*
X105800000Y-70500000D02*
X104800000Y-70500000D01*
X113860000Y-53075000D02*
X108300000Y-53075000D01*
X113860000Y-69805000D02*
X108300000Y-69805000D01*
X113860000Y-69805000D02*
X113860000Y-53075000D01*
M02*
