M48
; DRILL file KiCad 10.0.5 date 2026-10-08T23:09:15
; FORMAT={-:-/ absolute / metric / decimal}
; #@! TF.CreationDate,2026-10-08T23:09:15-04:00
; #@! TF.GenerationSoftware,Kicad,Pcbnew,10.0.5
; #@! TF.FileFunction,Plated,1,2,PTH
FMAT,2
METRIC
; #@! TA.AperFunction,Plated,PTH,ViaDrill
T1C0.600
; #@! TA.AperFunction,Plated,PTH,ComponentDrill
T2C0.750
; #@! TA.AperFunction,Plated,PTH,ComponentDrill
T3C0.890
; #@! TA.AperFunction,Plated,PTH,ComponentDrill
T4C1.000
; #@! TA.AperFunction,Plated,PTH,ComponentDrill
T5C1.100
; #@! TA.AperFunction,Plated,PTH,ComponentDrill
T6C1.300
; #@! TA.AperFunction,Plated,PTH,ComponentDrill
T7C1.570
; #@! TA.AperFunction,Plated,PTH,ComponentDrill
T8C3.200
%
G90
G05
T1
X122.0Y-87.5
X123.077Y-68.925
X130.25Y-83.75
X133.0Y-57.0
X133.5Y-62.5
X133.5Y-73.0
X138.017Y-54.707
X151.469Y-54.707
X156.5Y-52.5
X156.5Y-58.0
X156.5Y-63.0
X156.5Y-71.0
X156.5Y-74.5
X156.5Y-78.0
X156.5Y-88.5
X160.438Y-54.707
X169.407Y-72.0
T2
X141.23Y-56.73
X141.23Y-58.0
X141.23Y-59.27
X164.23Y-56.73
X164.23Y-58.0
X164.23Y-59.27
T3
X106.0Y-58.904
X106.0Y-60.936
X106.0Y-62.968
X106.0Y-65.0
X106.0Y-80.104
X106.0Y-82.136
X106.0Y-84.168
X106.0Y-86.2
X107.78Y-57.888
X107.78Y-59.92
X107.78Y-61.952
X107.78Y-63.984
X107.78Y-79.088
X107.78Y-81.12
X107.78Y-83.152
X107.78Y-85.184
X112.6Y-54.58
X112.6Y-56.87
X112.6Y-66.01
X112.6Y-68.3
X112.6Y-75.78
X112.6Y-78.07
X112.6Y-87.21
X112.6Y-89.5
X172.36Y-54.7
X172.36Y-56.99
X172.36Y-66.13
X172.36Y-68.42
X172.36Y-75.77
X172.36Y-78.06
X172.36Y-87.2
X172.36Y-89.49
X177.18Y-59.016
X177.18Y-61.048
X177.18Y-63.08
X177.18Y-65.112
X177.18Y-80.086
X177.18Y-82.118
X177.18Y-84.15
X177.18Y-86.182
X178.96Y-58.0
X178.96Y-60.032
X178.96Y-62.064
X178.96Y-64.096
X178.96Y-79.07
X178.96Y-81.102
X178.96Y-83.134
X178.96Y-85.166
T4
X108.37Y-46.23
X108.37Y-48.77
X110.91Y-46.23
X110.91Y-48.77
X113.45Y-46.23
X113.45Y-48.77
X115.99Y-46.23
X115.99Y-48.77
X118.53Y-46.23
X118.53Y-48.77
X121.07Y-46.23
X121.07Y-48.77
X123.61Y-46.23
X123.61Y-48.77
X126.15Y-46.23
X126.15Y-48.77
X127.45Y-68.45
X128.69Y-46.23
X128.69Y-48.77
X131.23Y-46.23
X131.23Y-48.77
X133.77Y-46.23
X133.77Y-48.77
X136.31Y-46.23
X136.31Y-48.77
X138.85Y-46.23
X138.85Y-48.77
X139.45Y-68.45
X141.39Y-46.23
X141.39Y-48.77
X143.93Y-46.23
X143.93Y-48.77
X146.47Y-46.23
X146.47Y-48.77
X149.01Y-46.23
X149.01Y-48.77
X150.45Y-68.5
X151.55Y-46.23
X151.55Y-48.77
X154.09Y-46.23
X154.09Y-48.77
X156.63Y-46.23
X156.63Y-48.77
X162.45Y-68.5
T5
X124.92Y-60.5
X135.08Y-60.5
X148.08Y-60.5
X158.24Y-60.5
T6
X127.45Y-80.65
X133.5Y-66.5
X139.5Y-80.7
X150.45Y-80.7
X156.5Y-66.55
X162.5Y-80.75
T7
X106.89Y-53.31
X106.89Y-69.57
X106.89Y-74.51
X106.89Y-90.77
X178.07Y-53.43
X178.07Y-69.69
X178.07Y-74.5
X178.07Y-90.76
T8
X122.0Y-94.0
M30
